{
	"buffers":[{
		"uri":"data:application/octet-stream;base64,",
		"byteLength":62072
	}],
	"asset":{
		"version":"2.0",
		"generator":"Created using the official Cinema 4D glTF Exporter 1.000x284978"
	},
	"images":[{
		"uri":"data:image/png;base64,"
	}],
	"scenes":[{
		"nodes":[0]
	}],
	"materials":[{
		"pbrMetallicRoughness":{
			"baseColorTexture":{
				"index":0
			},
			"baseColorFactor":[0.8,
			0.8,
			0.8,
			1.0],
			"metallicFactor":0.0,
			"roughnessFactor":0.5
		},
		"emissiveFactor":[0.0,
		0.0,
		0.0],
		"alphaMode":"BLEND",
		"doubleSided":false,
		"name":""
	}],
	"meshes":[{
		"name":"",
		"primitives":[{
			"attributes":{
				"POSITION":1,
				"NORMAL":2,
				"TEXCOORD_0":3
			},
			"indices":0,
			"material":0
		}]
	}],
	"nodes":[{
		"name":"",
		"translation":[0.0,
		0.0,
		0.0],
		"rotation":[0.0,
		0.0,
		0.0,
		-1.0],
		"scale":[1.0,
		1.0,
		1.0],
		"mesh":0
	}],
	"accessors":[{
		"bufferView":0,
		"min":[0],
		"type":"SCALAR",
		"componentType":5123,
		"count":7980,
		"byteOffset":0,
		"max":[1440]
	},
	{
		"bufferView":1,
		"min":[-3.0880990028381349,
		-0.23999999463558198,
		-1.7138701677322388],
		"type":"VEC3",
		"componentType":5126,
		"count":1441,
		"byteOffset":0,
		"max":[3.144714117050171,
		0.23999999463558198,
		1.441656470298767]
	},
	{
		"bufferView":1,
		"min":[-0.9541638493537903,
		-1.0,
		-0.99976646900177],
		"type":"VEC3",
		"componentType":5126,
		"count":1441,
		"byteOffset":12,
		"max":[0.9541581273078919,
		1.0,
		0.9997684955596924]
	},
	{
		"bufferView":1,
		"min":[-0.07077890634536743,
		0.20399993658065797],
		"type":"VEC2",
		"componentType":5126,
		"count":1441,
		"byteOffset":24,
		"max":[1.6898926496505738,
		1.5825047492980958]
	}],
	"bufferViews":[{
		"buffer":0,
		"byteOffset":0,
		"byteLength":15960,
		"target":34963
	},
	{
		"buffer":0,
		"byteStride":32,
		"byteOffset":15960,
		"byteLength":46112,
		"target":34962
	}],
	"samplers":[{
		"magFilter":9729,
		"minFilter":9729,
		"wrapS":10497,
		"wrapT":10497
	}],
	"textures":[{
		"sampler":0,
		"source":0
	}]
}