{
	"nodes":[{
		"name":"向右动画",
		"translation":[5.449999809265137,
		0.6000000238418579,
		0.0],
		"rotation":[0.7071067690849304,
		-0.7071067690849304,
		8.659560603426554e-17,
		1.232595164407831e-32],
		"scale":[1.0,
		1.0,
		1.0],
		"mesh":0
	},
	{
		"name":"向上动画",
		"translation":[0.0,
		5.599999904632568,
		0.0],
		"rotation":[1.0,
		-6.123234262925839e-17,
		6.123234262925839e-17,
		6.123234262925839e-17],
		"scale":[1.0,
		1.0,
		1.0],
		"mesh":1
	}],
	"scenes":[{
		"nodes":[0,
		1]
	}],
	"asset":{
		"generator":"Created using the official Cinema 4D glTF Exporter 1.000x284978",
		"version":"2.0"
	},
	"meshes":[{
		"name":"向右动画",
		"primitives":[{
			"targets":[{
				"POSITION":4
			}],
			"indices":0,
			"attributes":{
				"POSITION":1,
				"NORMAL":2,
				"TEXCOORD_0":3
			},
			"material":0
		}],
		"extras":{
			"targetNames":["curve0"]
		},
		"weights":[0.0]
	},
	{
		"name":"向上动画",
		"primitives":[{
			"targets":[{
				"POSITION":13
			}],
			"indices":9,
			"attributes":{
				"POSITION":10,
				"NORMAL":11,
				"TEXCOORD_0":12
			},
			"material":0
		}],
		"extras":{
			"targetNames":["curve0"]
		},
		"weights":[0.0]
	}],
	"accessors":[{
		"bufferView":0,
		"type":"SCALAR",
		"max":[130],
		"componentType":5123,
		"count":513,
		"byteOffset":0,
		"min":[0]
	},
	{
		"bufferView":1,
		"type":"VEC3",
		"max":[0.7493578791618347,
		5.542269229888916,
		2.5081439503082949e-7],
		"componentType":5126,
		"count":131,
		"byteOffset":0,
		"min":[-0.7493578791618347,
		-5.542269229888916,
		-2.5081439503082949e-7]
	},
	{
		"bufferView":1,
		"type":"VEC3",
		"max":[5.81726204984534e-8,
		-2.8082707714816025e-8,
		1.0],
		"componentType":5126,
		"count":131,
		"byteOffset":12,
		"min":[-6.00571112840953e-8,
		-5.001955827310667e-8,
		1.0]
	},
	{
		"bufferView":1,
		"type":"VEC2",
		"max":[0.8557695150375366,
		-0.0000032186508178710939],
		"componentType":5126,
		"count":131,
		"byteOffset":24,
		"min":[0.5,
		-1.0]
	},
	{
		"bufferView":2,
		"type":"VEC3",
		"max":[0.0,
		0.0,
		0.0],
		"componentType":5126,
		"count":131,
		"byteOffset":0,
		"min":[0.0,
		0.0,
		0.0]
	},
	{
		"bufferView":3,
		"type":"SCALAR",
		"max":[2.6666667461395265],
		"componentType":5126,
		"count":81,
		"byteOffset":0,
		"min":[0.0]
	},
	{
		"bufferView":3,
		"type":"VEC3",
		"max":[38.25,
		0.6000000238418579,
		0.0],
		"componentType":5126,
		"count":81,
		"byteOffset":324,
		"min":[5.449999809265137,
		0.6000000238418579,
		0.0]
	},
	{
		"bufferView":4,
		"type":"SCALAR",
		"max":[0.0],
		"componentType":5126,
		"count":1,
		"byteOffset":0,
		"min":[0.0]
	},
	{
		"bufferView":4,
		"type":"SCALAR",
		"max":[1.0],
		"componentType":5126,
		"count":1,
		"byteOffset":4,
		"min":[1.0]
	},
	{
		"bufferView":5,
		"type":"SCALAR",
		"max":[130],
		"componentType":5123,
		"count":513,
		"byteOffset":0,
		"min":[0]
	},
	{
		"bufferView":6,
		"type":"VEC3",
		"max":[0.7493578791618347,
		5.542269229888916,
		2.5081439503082949e-7],
		"componentType":5126,
		"count":131,
		"byteOffset":0,
		"min":[-0.7493578791618347,
		-5.542269229888916,
		-2.5081439503082949e-7]
	},
	{
		"bufferView":6,
		"type":"VEC3",
		"max":[5.81726204984534e-8,
		-2.8082707714816025e-8,
		1.0],
		"componentType":5126,
		"count":131,
		"byteOffset":12,
		"min":[-6.00571112840953e-8,
		-5.001955827310667e-8,
		1.0]
	},
	{
		"bufferView":6,
		"type":"VEC2",
		"max":[0.8557695150375366,
		-0.0000032186508178710939],
		"componentType":5126,
		"count":131,
		"byteOffset":24,
		"min":[0.5,
		-1.0]
	},
	{
		"bufferView":7,
		"type":"VEC3",
		"max":[0.0,
		0.0,
		0.0],
		"componentType":5126,
		"count":131,
		"byteOffset":0,
		"min":[0.0,
		0.0,
		0.0]
	},
	{
		"bufferView":8,
		"type":"SCALAR",
		"max":[2.6666667461395265],
		"componentType":5126,
		"count":81,
		"byteOffset":0,
		"min":[0.0]
	},
	{
		"bufferView":8,
		"type":"VEC3",
		"max":[0.0,
		70.3499984741211,
		0.0],
		"componentType":5126,
		"count":81,
		"byteOffset":324,
		"min":[0.0,
		5.599999904632568,
		0.0]
	},
	{
		"bufferView":9,
		"type":"SCALAR",
		"max":[0.0],
		"componentType":5126,
		"count":1,
		"byteOffset":0,
		"min":[0.0]
	},
	{
		"bufferView":9,
		"type":"SCALAR",
		"max":[1.0],
		"componentType":5126,
		"count":1,
		"byteOffset":4,
		"min":[1.0]
	}],
	"bufferViews":[{
		"buffer":0,
		"byteOffset":0,
		"byteLength":1026,
		"target":34963
	},
	{
		"buffer":0,
		"byteOffset":1028,
		"byteLength":4192,
		"target":34962,
		"byteStride":32
	},
	{
		"buffer":0,
		"byteOffset":5220,
		"byteLength":1572,
		"target":34962
	},
	{
		"buffer":1,
		"byteOffset":0,
		"byteLength":1296
	},
	{
		"buffer":1,
		"byteOffset":1296,
		"byteLength":8
	},
	{
		"buffer":2,
		"byteOffset":0,
		"byteLength":1026,
		"target":34963
	},
	{
		"buffer":2,
		"byteOffset":1028,
		"byteLength":4192,
		"target":34962,
		"byteStride":32
	},
	{
		"buffer":2,
		"byteOffset":5220,
		"byteLength":1572,
		"target":34962
	},
	{
		"buffer":3,
		"byteOffset":0,
		"byteLength":1296
	},
	{
		"buffer":3,
		"byteOffset":1296,
		"byteLength":8
	}],
	"buffers":[{
		"uri":"data:application/octet-stream;base64,",
		"byteLength":6792
	},
	{
		"uri":"data:application/octet-stream;base64,",
		"byteLength":1304
	},
	{
		"uri":"data:application/octet-stream;base64,",
		"byteLength":6792
	},
	{
		"uri":"data:application/octet-stream;base64,",
		"byteLength":1304
	}],
	"materials":[{
		"pbrMetallicRoughness":{
			"baseColorFactor":[1.0,
			1.0,
			1.0,
			1.0],
			"metallicFactor":1.0,
			"roughnessFactor":1.0
		},
		"emissiveFactor":[0.0,
		0.0,
		0.0],
		"alphaMode":"OPAQUE",
		"doubleSided":false,
		"name":"default"
	}],
	"animations":[{
		"samplers":[{
			"input":5,
			"interpolation":"LINEAR",
			"output":6
		},
		{
			"input":7,
			"interpolation":"LINEAR",
			"output":8
		},
		{
			"input":14,
			"interpolation":"LINEAR",
			"output":15
		},
		{
			"input":16,
			"interpolation":"LINEAR",
			"output":17
		}],
		"channels":[{
			"sampler":0,
			"target":{
				"node":0,
				"path":"translation"
			}
		},
		{
			"sampler":1,
			"target":{
				"node":0,
				"path":"weights"
			}
		},
		{
			"sampler":2,
			"target":{
				"node":1,
				"path":"translation"
			}
		},
		{
			"sampler":3,
			"target":{
				"node":1,
				"path":"weights"
			}
		}]
	}]
}